<?xml version="1.0" encoding="utf-8"?>
<!-- Generator: Adobe Illustrator 23.0.2, SVG Export Plug-In . SVG Version: 6.00 Build 0)  -->
<svg version="1.1" id="Capa_1" xmlns="http://www.w3.org/2000/svg" xmlns:xlink="http://www.w3.org/1999/xlink" x="0px" y="0px"
	 viewBox="0 0 512 512" style="enable-background:new 0 0 512 512;" xml:space="preserve">
<style type="text/css">
	.st0{fill:#FF8D66;}
	.st1{fill:#FF6F59;}
</style>
<path class="st0" d="M216.1,509.3l197.5-340c4.5-7.7-1.9-17.2-10.7-16l-131.4,17.9L302.9,6.4c1.1-5.6-6.1-8.7-9.5-4.2L99.2,258.5
	c-5.7,7.5,0.3,18.1,9.6,17.1l144.8-15.2l-47.5,245.3C205,511.5,213,514.5,216.1,509.3z"/>
<path class="st1" d="M159.9,240.3c-3.6,0.3-6-3.7-4.1-6.8L301,1.2c-2.2-1.7-5.6-1.8-7.6,0.9L99.2,258.5c-5.7,7.5,0.3,18.1,9.6,17.1
	l144.8-15.2l-47.5,245.3c-0.6,3.3,1.6,5.6,4.2,6.2l81.4-257.4c3.8-12.1-5.8-24.2-18.4-23.1L159.9,240.3z"/>
</svg>
